<svg xmlns="http://www.w3.org/2000/svg" viewBox="0 0 1366 768"><path d="M892.34,225.33h-522a6.7,6.7,0,0,1-6.7-6.7V204.1a11.28,11.28,0,0,0-11.24-11.24H253.36a11.27,11.27,0,0,0-11.23,11.24V598.56a12,12,0,0,0,12,12H892.34a12,12,0,0,0,12-12V237.33A12,12,0,0,0,892.34,225.33Z" style="fill:#f3f7ff"/><rect x="381.62" y="367.67" width="115.62" height="77.57" rx="17.85" style="fill:#fff"/><path d="M479.39,369.67a15.9,15.9,0,0,1,15.85,15.85V427.4a15.9,15.9,0,0,1-15.85,15.84H399.46a15.89,15.89,0,0,1-15.84-15.84V385.52a15.89,15.89,0,0,1,15.84-15.85h79.93m0-4H399.46a19.86,19.86,0,0,0-19.84,19.85V427.4a19.86,19.86,0,0,0,19.84,19.84h79.93a19.87,19.87,0,0,0,19.85-19.84V385.52a19.87,19.87,0,0,0-19.85-19.85Z" style="fill:#c5d3ff"/><rect x="391.7" y="419.67" width="86.64" height="15.73" rx="7.84" style="fill:#ff622c"/><text transform="translate(402.03 431.18)" style="font-size:12px;fill:#663125;font-family:MyriadPro-Regular, Myriad Pro">Not <tspan x="21" y="0" style="letter-spacing:-0.008015950520833334em">a</tspan><tspan x="26.69" y="0" style="letter-spacing:-0.003987630208333333em">v</tspan><tspan x="32.41" y="0">ailable</tspan></text><text transform="translate(392.84 389.1)" style="font-size:12px;font-family:MyriadPro-Regular, Myriad Pro">19:00</text><text transform="translate(394.09 406.46)" style="font-size:12px;font-family:MyriadPro-Regular, Myriad Pro">Hai<tspan x="16.42" y="0" style="letter-spacing:-0.009969075520833334em">r</tspan><tspan x="20.22" y="0">cut</tspan></text><rect x="242.13" y="192.86" width="121.53" height="22.47" rx="11.23" style="fill:#c5d3ff"/><circle cx="267.13" cy="149.98" r="25" style="fill:#c5d3ff"/><circle cx="329.18" cy="149.98" r="25" style="fill:#f3f7ff"/><circle cx="381.74" cy="149.98" r="15.51" style="fill:#f3f7ff"/><text transform="translate(259.66 157.87)" style="font-size:26.87588882446289px;font-family:MyriadPro-Regular, Myriad Pro">1</text><text transform="translate(322.97 157.87)" style="font-size:26.87588882446289px;font-family:MyriadPro-Regular, Myriad Pro">2</text><text transform="translate(373.98 157.87)" style="font-size:26.87588882446289px;font-family:MyriadPro-Regular, Myriad Pro">+</text><text transform="translate(256.14 208.05)" style="font-size:12px;font-family:MyriadPro-Regular, Myriad Pro"><tspan style="letter-spacing:0.0059814453125em">M</tspan><tspan x="9.72" y="0">ond</tspan><tspan x="29.74" y="0" style="letter-spacing:-0.008015950520833334em">a</tspan><tspan x="35.42" y="0" style="letter-spacing:-0.0389404296875em">y</tspan><tspan x="40.61" y="0" style="letter-spacing:-0.000040690104166666664em">, 19 of June</tspan></text><rect x="371.42" y="192.86" width="121.53" height="22.47" rx="11.23" style="fill:#f3f7ff"/><text transform="translate(385.43 208.05)" style="font-size:12px;font-family:MyriadPro-Regular, Myriad Pro"><tspan style="letter-spacing:0.0059814453125em">M</tspan><tspan x="9.72" y="0">ond</tspan><tspan x="29.74" y="0" style="letter-spacing:-0.008015950520833334em">a</tspan><tspan x="35.42" y="0" style="letter-spacing:-0.0389404296875em">y</tspan><tspan x="40.61" y="0" style="letter-spacing:-0.000040690104166666664em">, 19 of June</tspan></text><rect x="500.72" y="192.86" width="121.53" height="22.47" rx="11.23" style="fill:#f3f7ff"/><text transform="translate(514.73 208.05)" style="font-size:12px;font-family:MyriadPro-Regular, Myriad Pro"><tspan style="letter-spacing:0.0059814453125em">M</tspan><tspan x="9.72" y="0">ond</tspan><tspan x="29.74" y="0" style="letter-spacing:-0.008015950520833334em">a</tspan><tspan x="35.42" y="0" style="letter-spacing:-0.0389404296875em">y</tspan><tspan x="40.61" y="0" style="letter-spacing:-0.000040690104166666664em">, 19 of June</tspan></text><rect x="630.01" y="192.86" width="121.53" height="22.47" rx="11.23" style="fill:#f3f7ff"/><text transform="translate(644.02 208.05)" style="font-size:12px;font-family:MyriadPro-Regular, Myriad Pro"><tspan style="letter-spacing:0.0059814453125em">M</tspan><tspan x="9.72" y="0">ond</tspan><tspan x="29.74" y="0" style="letter-spacing:-0.008015950520833334em">a</tspan><tspan x="35.42" y="0" style="letter-spacing:-0.0389404296875em">y</tspan><tspan x="40.61" y="0" style="letter-spacing:-0.000040690104166666664em">, 19 of June</tspan></text><rect x="759.31" y="192.86" width="121.53" height="22.47" rx="11.23" style="fill:#f3f7ff"/><text transform="translate(773.32 208.05)" style="font-size:12px;font-family:MyriadPro-Regular, Myriad Pro"><tspan style="letter-spacing:0.0059814453125em">M</tspan><tspan x="9.72" y="0">ond</tspan><tspan x="29.74" y="0" style="letter-spacing:-0.008015950520833334em">a</tspan><tspan x="35.42" y="0" style="letter-spacing:-0.0389404296875em">y</tspan><tspan x="40.61" y="0" style="letter-spacing:-0.000040690104166666664em">, 19 of June</tspan></text><rect x="888.6" y="192.86" width="121.53" height="22.47" rx="11.23" style="fill:#f3f7ff"/><text transform="translate(902.61 208.05)" style="font-size:12px;font-family:MyriadPro-Regular, Myriad Pro"><tspan style="letter-spacing:0.0059814453125em">M</tspan><tspan x="9.72" y="0">ond</tspan><tspan x="29.74" y="0" style="letter-spacing:-0.008015950520833334em">a</tspan><tspan x="35.42" y="0" style="letter-spacing:-0.0389404296875em">y</tspan><tspan x="40.61" y="0" style="letter-spacing:-0.000040690104166666664em">, 19 of June</tspan></text><rect x="1017.9" y="192.86" width="121.53" height="22.47" rx="11.23" style="fill:#f3f7ff"/><text transform="translate(1031.91 208.05)" style="font-size:12px;font-family:MyriadPro-Regular, Myriad Pro"><tspan style="letter-spacing:0.0059814453125em">M</tspan><tspan x="9.72" y="0">ond</tspan><tspan x="29.74" y="0" style="letter-spacing:-0.008015950520833334em">a</tspan><tspan x="35.42" y="0" style="letter-spacing:-0.0389404296875em">y</tspan><tspan x="40.61" y="0" style="letter-spacing:-0.000040690104166666664em">, 19 of June</tspan></text><rect x="916.19" y="225.33" width="223.23" height="385.23" rx="10.03" style="fill:#c5d3ff"/><rect y="0.24" width="1366" height="66.29" style="fill:#f3f7ff"/><text transform="translate(259.22 259.86)" style="font-size:26.87588882446289px;font-family:MyriadPro-Regular, Myriad Pro"><tspan style="letter-spacing:0.005995441250424216em">S</tspan><tspan x="13.41" y="0">chedule</tspan></text><text transform="translate(242.13 114.16)" style="font-size:26.87588882446289px;font-family:MyriadPro-Regular, Myriad Pro;letter-spacing:-0.03299309488112235em">W<tspan x="21.85" y="0" style="letter-spacing:0.00001816800378916429em">eeks</tspan></text><text transform="translate(931.45 259.86)" style="font-size:26.87588882446289px;font-family:MyriadPro-Regular, Myriad Pro"><tspan style="letter-spacing:0.003996960833616144em">D</tspan><tspan x="18.01" y="0">etails</tspan></text><rect x="936.27" y="299.56" width="178.99" height="22.47" rx="11.23" style="fill:#e0e0e0"/><text transform="translate(950.28 314.75)" style="font-size:12px;font-family:MyriadPro-Regular, Myriad Pro">19:00</text><text transform="translate(936.27 290.58)" style="font-size:12px;font-family:MyriadPro-Regular, Myriad Pro"><tspan style="letter-spacing:-0.012003580729166666em">T</tspan><tspan x="5.82" y="0">ime</tspan></text><rect x="936.27" y="358.08" width="178.99" height="22.47" rx="11.23" style="fill:#f3f7ff"/><text transform="translate(950.28 373.27)" style="font-size:12px;font-family:MyriadPro-Regular, Myriad Pro">Hai<tspan x="16.42" y="0" style="letter-spacing:-0.009969075520833334em">r</tspan><tspan x="20.22" y="0">cut</tspan></text><text transform="translate(936.27 349.1)" style="font-size:12px;font-family:MyriadPro-Regular, Myriad Pro"><tspan style="letter-spacing:0.0059814453125em">S</tspan><tspan x="5.99" y="0" style="letter-spacing:0.000040690104166666664em">e</tspan><tspan x="12" y="0" style="letter-spacing:0.024983723958333332em">r</tspan><tspan x="16.22" y="0">vi</tspan><tspan x="24.8" y="0" style="letter-spacing:-0.0059814453125em">c</tspan><tspan x="30.11" y="0" style="letter-spacing:0.000040690104166666664em">e</tspan></text><rect x="936.27" y="416.6" width="178.99" height="22.47" rx="11.23" style="fill:#f3f7ff"/><text transform="translate(950.28 431.78)" style="font-size:12px;font-family:MyriadPro-Regular, Myriad Pro">Dio B<tspan x="26.44" y="0" style="letter-spacing:-0.0050048828125em">r</tspan><tspan x="30.3" y="0" style="letter-spacing:0.000040690104166666664em">andi</tspan></text><text transform="translate(936.27 407.61)" style="font-size:12px;font-family:MyriadPro-Regular, Myriad Pro">Ba<tspan x="12.29" y="0" style="letter-spacing:0.0040283203125em">r</tspan><tspan x="16.26" y="0">ber</tspan></text><rect x="936.27" y="475.11" width="178.99" height="22.47" rx="11.23" style="fill:#f3f7ff"/><text transform="translate(950.28 490.3)" style="font-size:12px;font-family:MyriadPro-Regular, Myriad Pro;letter-spacing:-0.006998697916666667em">E<tspan x="5.82" y="0" style="letter-spacing:-0.009969075520833334em">v</tspan><tspan x="11.47" y="0" style="letter-spacing:-0.000040690104166666664em">gen Zaluppi</tspan></text><rect x="936.27" y="570.47" width="88.34" height="22.47" rx="11.23" style="fill:#f3f7ff"/><rect x="1035.91" y="570.47" width="79.35" height="22.47" rx="11.23" style="fill:#f3f7ff"/><text transform="translate(936.27 466.13)" style="font-size:12px;font-family:MyriadPro-Regular, Myriad Pro">Clie<tspan x="18.61" y="0" style="letter-spacing:-0.0040283203125em">n</tspan><tspan x="25.22" y="0">t</tspan></text><rect x="260.35" y="283.37" width="111.62" height="73.57" rx="15.85" style="fill:#fff"/><rect x="268.43" y="333.37" width="66.64" height="15.73" rx="7.84" style="fill:#7eff79"/><text transform="translate(278.75 344.88)" style="font-size:12px;fill:#096c00;font-family:MyriadPro-Regular, Myriad Pro;letter-spacing:-0.02099609375em">A<tspan x="7.09" y="0" style="letter-spacing:-0.0040283203125em">v</tspan><tspan x="12.82" y="0" style="letter-spacing:0.000040690104166666664em">ailable</tspan></text><text transform="translate(269.57 302.8)" style="font-size:12px;font-family:MyriadPro-Regular, Myriad Pro">10:00</text><text transform="translate(270.82 320.16)" style="font-size:12px;font-family:MyriadPro-Regular, Myriad Pro">Nothing planned</text><rect x="383.62" y="283.37" width="111.62" height="73.57" rx="15.85" style="fill:#fff"/><rect x="391.7" y="333.37" width="66.64" height="15.73" rx="7.84" style="fill:#7eff79"/><text transform="translate(402.03 344.88)" style="font-size:12px;fill:#096c00;font-family:MyriadPro-Regular, Myriad Pro;letter-spacing:-0.02099609375em">A<tspan x="7.09" y="0" style="letter-spacing:-0.0040283203125em">v</tspan><tspan x="12.82" y="0" style="letter-spacing:0.000040690104166666664em">ailable</tspan></text><text transform="translate(392.84 302.8)" style="font-size:12px;font-family:MyriadPro-Regular, Myriad Pro">10:00</text><text transform="translate(394.09 320.16)" style="font-size:12px;font-family:MyriadPro-Regular, Myriad Pro">Nothing planned</text><rect x="506.89" y="283.37" width="111.62" height="73.57" rx="15.85" style="fill:#fff"/><rect x="514.97" y="333.37" width="86.64" height="15.73" rx="7.84" style="fill:#ff622c"/><text transform="translate(525.3 344.88)" style="font-size:12px;fill:#663125;font-family:MyriadPro-Regular, Myriad Pro">Not <tspan x="21" y="0" style="letter-spacing:-0.008015950520833334em">a</tspan><tspan x="26.69" y="0" style="letter-spacing:-0.003987630208333333em">v</tspan><tspan x="32.41" y="0">ailable</tspan></text><text transform="translate(516.12 302.8)" style="font-size:12px;font-family:MyriadPro-Regular, Myriad Pro">10:00</text><text transform="translate(517.36 320.16)" style="font-size:12px;font-family:MyriadPro-Regular, Myriad Pro">Hai<tspan x="16.42" y="0" style="letter-spacing:-0.009969075520833334em">r</tspan><tspan x="20.22" y="0">cut</tspan></text><rect x="630.16" y="283.37" width="111.62" height="73.57" rx="15.85" style="fill:#fff"/><rect x="638.24" y="333.37" width="66.64" height="15.73" rx="7.84" style="fill:#7eff79"/><text transform="translate(648.57 344.88)" style="font-size:12px;fill:#096c00;font-family:MyriadPro-Regular, Myriad Pro;letter-spacing:-0.02099609375em">A<tspan x="7.09" y="0" style="letter-spacing:-0.0040283203125em">v</tspan><tspan x="12.82" y="0" style="letter-spacing:0.000040690104166666664em">ailable</tspan></text><text transform="translate(639.39 302.8)" style="font-size:12px;font-family:MyriadPro-Regular, Myriad Pro">10:00</text><text transform="translate(640.64 320.16)" style="font-size:12px;font-family:MyriadPro-Regular, Myriad Pro">Nothing planned</text><rect x="753.43" y="283.37" width="111.62" height="73.57" rx="15.85" style="fill:#fff"/><rect x="761.51" y="333.37" width="66.64" height="15.73" rx="7.84" style="fill:#7eff79"/><text transform="translate(771.84 344.88)" style="font-size:12px;fill:#096c00;font-family:MyriadPro-Regular, Myriad Pro;letter-spacing:-0.02099609375em">A<tspan x="7.09" y="0" style="letter-spacing:-0.0040283203125em">v</tspan><tspan x="12.82" y="0" style="letter-spacing:0.000040690104166666664em">ailable</tspan></text><text transform="translate(762.66 302.8)" style="font-size:12px;font-family:MyriadPro-Regular, Myriad Pro">10:00</text><text transform="translate(763.91 320.16)" style="font-size:12px;font-family:MyriadPro-Regular, Myriad Pro">Nothing planned</text><rect x="260.35" y="369.67" width="111.62" height="73.57" rx="15.85" style="fill:#fff"/><rect x="268.43" y="419.67" width="66.64" height="15.73" rx="7.84" style="fill:#7eff79"/><text transform="translate(278.75 431.18)" style="font-size:12px;fill:#096c00;font-family:MyriadPro-Regular, Myriad Pro;letter-spacing:-0.02099609375em">A<tspan x="7.09" y="0" style="letter-spacing:-0.0040283203125em">v</tspan><tspan x="12.82" y="0" style="letter-spacing:0.000040690104166666664em">ailable</tspan></text><text transform="translate(269.57 389.1)" style="font-size:12px;font-family:MyriadPro-Regular, Myriad Pro">10:00</text><text transform="translate(270.82 406.46)" style="font-size:12px;font-family:MyriadPro-Regular, Myriad Pro">Nothing planned</text><rect x="506.89" y="369.67" width="111.62" height="73.57" rx="15.85" style="fill:#fff"/><rect x="514.97" y="419.67" width="66.64" height="15.73" rx="7.84" style="fill:#7eff79"/><text transform="translate(525.3 431.18)" style="font-size:12px;fill:#096c00;font-family:MyriadPro-Regular, Myriad Pro;letter-spacing:-0.02099609375em">A<tspan x="7.09" y="0" style="letter-spacing:-0.0040283203125em">v</tspan><tspan x="12.82" y="0" style="letter-spacing:0.000040690104166666664em">ailable</tspan></text><text transform="translate(516.12 389.1)" style="font-size:12px;font-family:MyriadPro-Regular, Myriad Pro">10:00</text><text transform="translate(517.36 406.46)" style="font-size:12px;font-family:MyriadPro-Regular, Myriad Pro">Nothing planned</text><rect x="630.16" y="369.67" width="111.62" height="73.57" rx="15.85" style="fill:#fff"/><rect x="638.24" y="419.67" width="66.64" height="15.73" rx="7.84" style="fill:#7eff79"/><text transform="translate(648.57 431.18)" style="font-size:12px;fill:#096c00;font-family:MyriadPro-Regular, Myriad Pro;letter-spacing:-0.02099609375em">A<tspan x="7.09" y="0" style="letter-spacing:-0.0040283203125em">v</tspan><tspan x="12.82" y="0" style="letter-spacing:0.000040690104166666664em">ailable</tspan></text><text transform="translate(639.39 389.1)" style="font-size:12px;font-family:MyriadPro-Regular, Myriad Pro">10:00</text><text transform="translate(640.64 406.46)" style="font-size:12px;font-family:MyriadPro-Regular, Myriad Pro">Nothing planned</text><rect x="753.43" y="369.67" width="111.62" height="73.57" rx="15.85" style="fill:#fff"/><rect x="761.51" y="419.67" width="66.64" height="15.73" rx="7.84" style="fill:#7eff79"/><text transform="translate(771.84 431.18)" style="font-size:12px;fill:#096c00;font-family:MyriadPro-Regular, Myriad Pro;letter-spacing:-0.02099609375em">A<tspan x="7.09" y="0" style="letter-spacing:-0.0040283203125em">v</tspan><tspan x="12.82" y="0" style="letter-spacing:0.000040690104166666664em">ailable</tspan></text><text transform="translate(762.66 389.1)" style="font-size:12px;font-family:MyriadPro-Regular, Myriad Pro">10:00</text><text transform="translate(763.91 406.46)" style="font-size:12px;font-family:MyriadPro-Regular, Myriad Pro">Nothing planned</text><rect x="260.35" y="455.97" width="111.62" height="73.57" rx="15.85" style="fill:#fff"/><rect x="268.43" y="505.97" width="66.64" height="15.73" rx="7.84" style="fill:#7eff79"/><text transform="translate(278.75 517.48)" style="font-size:12px;fill:#096c00;font-family:MyriadPro-Regular, Myriad Pro;letter-spacing:-0.02099609375em">A<tspan x="7.09" y="0" style="letter-spacing:-0.0040283203125em">v</tspan><tspan x="12.82" y="0" style="letter-spacing:0.000040690104166666664em">ailable</tspan></text><text transform="translate(269.57 475.39)" style="font-size:12px;font-family:MyriadPro-Regular, Myriad Pro">10:00</text><text transform="translate(270.82 492.76)" style="font-size:12px;font-family:MyriadPro-Regular, Myriad Pro">Nothing planned</text><rect x="383.62" y="455.97" width="111.62" height="73.57" rx="15.85" style="fill:#fff"/><rect x="391.7" y="505.97" width="66.64" height="15.73" rx="7.84" style="fill:#7eff79"/><text transform="translate(402.03 517.48)" style="font-size:12px;fill:#096c00;font-family:MyriadPro-Regular, Myriad Pro;letter-spacing:-0.02099609375em">A<tspan x="7.09" y="0" style="letter-spacing:-0.0040283203125em">v</tspan><tspan x="12.82" y="0" style="letter-spacing:0.000040690104166666664em">ailable</tspan></text><text transform="translate(392.84 475.39)" style="font-size:12px;font-family:MyriadPro-Regular, Myriad Pro">10:00</text><text transform="translate(394.09 492.76)" style="font-size:12px;font-family:MyriadPro-Regular, Myriad Pro">Nothing planned</text><rect x="506.89" y="455.97" width="111.62" height="73.57" rx="15.85" style="fill:#fff"/><rect x="514.97" y="505.97" width="66.64" height="15.73" rx="7.84" style="fill:#7eff79"/><text transform="translate(525.3 517.48)" style="font-size:12px;fill:#096c00;font-family:MyriadPro-Regular, Myriad Pro;letter-spacing:-0.02099609375em">A<tspan x="7.09" y="0" style="letter-spacing:-0.0040283203125em">v</tspan><tspan x="12.82" y="0" style="letter-spacing:0.000040690104166666664em">ailable</tspan></text><text transform="translate(516.12 475.39)" style="font-size:12px;font-family:MyriadPro-Regular, Myriad Pro">10:00</text><text transform="translate(517.36 492.76)" style="font-size:12px;font-family:MyriadPro-Regular, Myriad Pro">Nothing planned</text><rect x="630.16" y="455.97" width="111.62" height="73.57" rx="15.85" style="fill:#fff"/><rect x="638.24" y="505.97" width="66.64" height="15.73" rx="7.84" style="fill:#7eff79"/><text transform="translate(648.57 517.48)" style="font-size:12px;fill:#096c00;font-family:MyriadPro-Regular, Myriad Pro;letter-spacing:-0.02099609375em">A<tspan x="7.09" y="0" style="letter-spacing:-0.0040283203125em">v</tspan><tspan x="12.82" y="0" style="letter-spacing:0.000040690104166666664em">ailable</tspan></text><text transform="translate(639.39 475.39)" style="font-size:12px;font-family:MyriadPro-Regular, Myriad Pro">10:00</text><text transform="translate(640.64 492.76)" style="font-size:12px;font-family:MyriadPro-Regular, Myriad Pro">Nothing planned</text><rect x="753.43" y="455.97" width="111.62" height="73.57" rx="15.85" style="fill:#fff"/><rect x="761.51" y="505.97" width="66.64" height="15.73" rx="7.84" style="fill:#7eff79"/><text transform="translate(771.84 517.48)" style="font-size:12px;fill:#096c00;font-family:MyriadPro-Regular, Myriad Pro;letter-spacing:-0.02099609375em">A<tspan x="7.09" y="0" style="letter-spacing:-0.0040283203125em">v</tspan><tspan x="12.82" y="0" style="letter-spacing:0.000040690104166666664em">ailable</tspan></text><text transform="translate(762.66 475.39)" style="font-size:12px;font-family:MyriadPro-Regular, Myriad Pro">10:00</text><text transform="translate(763.91 492.76)" style="font-size:12px;font-family:MyriadPro-Regular, Myriad Pro">Nothing planned</text><text transform="translate(969.11 585.65)" style="font-size:12px;font-family:MyriadPro-Regular, Myriad Pro"><tspan style="letter-spacing:-0.003987630208333333em">E</tspan><tspan x="5.86" y="0">dit</tspan></text><text transform="translate(1062.56 585.65)" style="font-size:12px;font-family:MyriadPro-Regular, Myriad Pro;letter-spacing:0.0029703776041666665em">S<tspan x="5.95" y="0" style="letter-spacing:-0.007975260416666666em">a</tspan><tspan x="11.64" y="0" style="letter-spacing:-0.010009765625em">v</tspan><tspan x="17.29" y="0" style="letter-spacing:0.000040690104166666664em">e</tspan></text><path d="M256.07,40.83c-1.55-3.95-7.19-6.43-12.63-4.19L232.37,6a54,54,0,0,0,.73,15.3c1,5.43,2.87,9.48,6.53,17.58,4,8.91,6.1,13.37,8.5,13.56C252,52.77,258.19,46.22,256.07,40.83Zm-15.43-7.12c-.1.32-.4.81-.79.78s-.62-.5-.68-.84c-.13-.74.49-1.6.92-1.55S240.85,33,240.64,33.71Zm9.13,15.2c-1.9.19-4.33-3.4-5.62-8.91,2.85-2.29,6.69-1.79,8.36.35C254.9,43.4,251.94,48.69,249.77,48.91Z" style="fill:#2956e5"/><path d="M247.57,6,236.5,36.64c-5.44-2.24-11.09.24-12.64,4.19-2.12,5.39,4,11.94,7.95,11.64,2.4-.19,4.46-4.65,8.49-13.56,3.67-8.1,5.5-12.15,6.54-17.58A54.71,54.71,0,0,0,247.57,6Zm-17.4,42.88c-2.17-.22-5.13-5.51-2.74-8.56,1.66-2.14,5.51-2.64,8.35-.35C234.5,45.51,232.06,49.1,230.17,48.91Zm10.47-15.2c-.1.32-.4.81-.79.78s-.62-.5-.68-.84c-.13-.74.49-1.6.92-1.55S240.85,33,240.64,33.71Z" style="fill:#0021ac"/><path d="M144.24,30.44a9,9,0,0,1,4,1.83,4,4,0,0,1,1.11,3,4.94,4.94,0,0,1-2,4.34c-1.36,1-3.46,1.43-6.3,1.43h-7.84c-.33,0-.49-.12-.49-.36V40c0-.19.15-.33.44-.42.61-.21.91-.51.91-.91V24.75a.48.48,0,0,0-.13-.4,3.46,3.46,0,0,0-.77-.32c-.21-.07-.34-.14-.37-.23a1.86,1.86,0,0,1-.06-.62.8.8,0,0,1,.17-.59.88.88,0,0,1,.58-.15h8.79a8.67,8.67,0,0,1,4.88,1.16,3.5,3.5,0,0,1,1.7,3,3.06,3.06,0,0,1-1.34,2.51A7.53,7.53,0,0,1,144.24,30.44Zm-4.2-6.7v6.05h.85a2.14,2.14,0,0,0,1.26-.33,1.44,1.44,0,0,0,.52-1.11c.05-.52.08-1.18.08-2a3.55,3.55,0,0,0-.44-2.15,1.86,1.86,0,0,0-1.42-.49Zm0,7.37v8.61a4.57,4.57,0,0,0,2-.29,1.38,1.38,0,0,0,.59-1.14q.09-.85.09-2.88c0-.28,0-.91,0-1.89a6.65,6.65,0,0,0-.19-1.77,1.07,1.07,0,0,0-.51-.47,2.46,2.46,0,0,0-1.06-.17Z" style="fill:#0c0052"/><path d="M158.33,37.07h-4l-.18,1.06a.22.22,0,0,1,0,.1,1.59,1.59,0,0,0-.13.6c0,.27.25.51.75.7a1,1,0,0,1,.49.31,1,1,0,0,1,.1.53,1.39,1.39,0,0,1-.07.57c-.05.07-.17.1-.35.1h-4.22c-.23,0-.35-.18-.35-.53a1.2,1.2,0,0,1,.56-1,1.26,1.26,0,0,0,.61-.77l3-13.56a2,2,0,0,0,.08-.54q0-.36-.69-.63a.61.61,0,0,1-.32-.62,1.73,1.73,0,0,1,.1-.78q.09-.15.51-.15h6.12a.84.84,0,0,1,.79.38,5.91,5.91,0,0,1,.45,1.66c.06.33.12.66.19,1l2.63,12.67a2.09,2.09,0,0,0,.95,1.4,1.31,1.31,0,0,1,.27.2,1,1,0,0,1,.06.46,1.33,1.33,0,0,1-.11.72c-.07.09-.23.13-.48.13H157.9c-.21,0-.32-.14-.32-.44a1.81,1.81,0,0,1,.08-.69,1.12,1.12,0,0,1,.46-.32c.37-.17.56-.39.56-.65A11.58,11.58,0,0,0,158.33,37.07Zm-1.92-10.34-1.81,9h3.57Z" style="fill:#0c0052"/><path d="M173.79,32.86v5.71a1.61,1.61,0,0,0,.07.55.86.86,0,0,0,.4.28.68.68,0,0,1,.43.66,1.29,1.29,0,0,1-.17.83.94.94,0,0,1-.61.15h-6.77c-.39,0-.58-.2-.58-.6a3.54,3.54,0,0,1,.05-.74c0-.11.14-.19.32-.24.59-.17.88-.5.88-1V25a.87.87,0,0,0-.77-.92,1.17,1.17,0,0,1-.48-.18.91.91,0,0,1-.1-.54c0-.59.23-.89.68-.89H176a8.17,8.17,0,0,1,4.73,1.43,4.44,4.44,0,0,1,2.07,3.84q0,3.42-4.85,4.47,4.44.7,4.44,4V39a.56.56,0,0,0,.37.52.67.67,0,0,1,.43.63,1.59,1.59,0,0,1-.11.79c-.08.09-.28.13-.6.13h-4.29a1.54,1.54,0,0,1-1.27-.63,2.42,2.42,0,0,1-.5-1.55V34.22c0-.91-.63-1.36-1.91-1.36Zm0-9.11v7.77h1c1.06,0,1.59-.76,1.59-2.29V25.52a1.67,1.67,0,0,0-.5-1.37,2.6,2.6,0,0,0-1.58-.4Z" style="fill:#0c0052"/><path d="M195.55,30.44a8.9,8.9,0,0,1,4,1.83,4,4,0,0,1,1.11,3,4.94,4.94,0,0,1-2,4.34c-1.35,1-3.45,1.43-6.3,1.43h-7.84q-.48,0-.48-.36V40c0-.19.14-.33.43-.42.61-.21.92-.51.92-.91V24.75a.51.51,0,0,0-.13-.4,3.71,3.71,0,0,0-.77-.32c-.22-.07-.34-.14-.38-.23a1.86,1.86,0,0,1-.06-.62.8.8,0,0,1,.17-.59.91.91,0,0,1,.59-.15h8.79a8.63,8.63,0,0,1,4.87,1.16,3.5,3.5,0,0,1,1.7,3,3.06,3.06,0,0,1-1.34,2.51A7.43,7.43,0,0,1,195.55,30.44Zm-4.2-6.7v6.05h.85a2.1,2.1,0,0,0,1.26-.33,1.47,1.47,0,0,0,.53-1.11c0-.52.07-1.18.07-2a3.55,3.55,0,0,0-.44-2.15,1.85,1.85,0,0,0-1.42-.49Zm0,7.37v8.61a4.57,4.57,0,0,0,2-.29,1.34,1.34,0,0,0,.59-1.14q.09-.85.09-2.88c0-.28,0-.91,0-1.89a6.22,6.22,0,0,0-.19-1.77,1,1,0,0,0-.5-.47,2.51,2.51,0,0,0-1.07-.17Z" style="fill:#0c0052"/><path d="M209.31,23.86v6.58h1.09a1.25,1.25,0,0,0,.66-.14.94.94,0,0,0,.32-.6,3.9,3.9,0,0,1,.31-1,.44.44,0,0,1,.38-.16,7.74,7.74,0,0,1,1.43.07c.12.06.17.25.17.59v3.83c0,.24,0,.4-.16.47a2.5,2.5,0,0,1-1,.11,1.32,1.32,0,0,1-.73-.14,1.79,1.79,0,0,1-.36-.82,1.6,1.6,0,0,0-.35-.74.75.75,0,0,0-.52-.14h-1.25v7.94h.85a1.43,1.43,0,0,0,1.08-.32,8.19,8.19,0,0,0,1-1.83,1.93,1.93,0,0,1,.56-.83,1.91,1.91,0,0,1,1-.19c.66,0,1,.15,1,.46a1.93,1.93,0,0,1-.06.4L214.1,40a3.14,3.14,0,0,1-.26.86c-.07.09-.28.14-.65.14H202.5a.71.71,0,0,1-.52-.13,1.57,1.57,0,0,1-.11-.77c0-.27.19-.46.58-.59.59-.17.88-.41.88-.72V24.46c0-.15-.25-.29-.72-.44a1.18,1.18,0,0,1-.57-.29,1.49,1.49,0,0,1-.09-.67c0-.3,0-.48.1-.53a1,1,0,0,1,.56-.09h10.23a1.29,1.29,0,0,1,.56.09.64.64,0,0,1,.27.44l.82,3a1.9,1.9,0,0,1,.07.32c0,.2-.26.31-.78.31a2.91,2.91,0,0,1-1.16-.15,1.44,1.44,0,0,1-.57-.72,6.65,6.65,0,0,0-.85-1.44,1.06,1.06,0,0,0-.8-.4Z" style="fill:#0c0052"/><path d="M223.05,32.86v5.71a1.61,1.61,0,0,0,.07.55.91.91,0,0,0,.41.28.68.68,0,0,1,.42.66c0,.45,0,.72-.17.83a.92.92,0,0,1-.61.15H216.4c-.39,0-.58-.2-.58-.6a3.54,3.54,0,0,1,.05-.74c0-.11.14-.19.32-.24.59-.17.88-.5.88-1V25a.86.86,0,0,0-.77-.92,1.32,1.32,0,0,1-.48-.18.94.94,0,0,1-.09-.54c0-.59.22-.89.67-.89h8.87A8.17,8.17,0,0,1,230,23.87a4.45,4.45,0,0,1,2.08,3.84q0,3.42-4.86,4.47,4.44.7,4.44,4V39a.56.56,0,0,0,.37.52.66.66,0,0,1,.43.63,1.59,1.59,0,0,1-.11.79c-.08.09-.27.13-.59.13h-4.3a1.55,1.55,0,0,1-1.27-.63,2.42,2.42,0,0,1-.5-1.55V34.22c0-.91-.63-1.36-1.9-1.36Zm0-9.11v7.77h1c1.05,0,1.58-.76,1.58-2.29V25.52a1.64,1.64,0,0,0-.5-1.37,2.58,2.58,0,0,0-1.58-.4Z" style="fill:#0c0052"/><rect x="1027.26" y="15.72" width="88.34" height="29.11" rx="14.55" style="fill:#c5d3ff"/><text transform="translate(1057.59 33.46)" style="font-size:12px;font-family:MyriadPro-Regular, Myriad Pro"><tspan style="letter-spacing:-0.013956705729166666em">L</tspan><tspan x="5.5" y="0">o</tspan><tspan x="12.08" y="0" style="letter-spacing:-0.006022135416666667em">g</tspan><tspan x="18.72" y="0">in</tspan></text><rect x="1126.71" y="15.72" width="88.34" height="29.11" rx="14.55" style="fill:#2956e5"/><text transform="translate(1152.4 33.46)" style="font-size:12px;fill:#fff;font-family:MyriadPro-Regular, Myriad Pro">Si<tspan x="8.72" y="0" style="letter-spacing:-0.006022135416666667em">g</tspan><tspan x="15.36" y="0" style="letter-spacing:-0.000040690104166666664em">n up</tspan></text><rect x="287.84" y="18.91" width="105" height="29.11" rx="14.55" style="fill:#fff"/><text transform="translate(318.18 36.64)" style="font-size:12px;font-family:MyriadPro-Regular, Myriad Pro"><tspan style="letter-spacing:-0.0030110677083333335em">A</tspan><tspan x="7.31" y="0">bout us</tspan></text><rect x="402.03" y="18.74" width="113.62" height="29.11" rx="14.55" style="fill:#fff"/><text transform="translate(427.73 36.48)" style="font-size:12px;font-family:MyriadPro-Regular, Myriad Pro"><tspan style="letter-spacing:0.0059814453125em">S</tspan><tspan x="5.99" y="0" style="letter-spacing:0.000040690104166666664em">e</tspan><tspan x="12" y="0" style="letter-spacing:0.024983723958333332em">r</tspan><tspan x="16.22" y="0">vi</tspan><tspan x="24.8" y="0" style="letter-spacing:-0.0059814453125em">c</tspan><tspan x="30.11" y="0" style="letter-spacing:0.000040690104166666664em">es</tspan></text><polyline points="485.75 30.46 491.29 35.99 496.82 30.46" style="fill:none;stroke:#c5d3ff;stroke-miterlimit:10;stroke-width:4px"/><line x1="242.13" y1="0.24" x2="242.13" y2="768" style="fill:none;stroke:#c5d3ff;stroke-miterlimit:10;stroke-width:2px"/><line x1="1139.43" y1="0.24" x2="1139.43" y2="768" style="fill:none;stroke:#c5d3ff;stroke-miterlimit:10;stroke-width:2px"/><line x1="1239.81" y1="0.24" x2="1239.81" y2="768" style="fill:none;stroke:#c5d3ff;stroke-miterlimit:10;stroke-width:2px"/><line x1="131.78" y1="0.12" x2="131.78" y2="767.88" style="fill:none;stroke:#c5d3ff;stroke-miterlimit:10;stroke-width:2px"/><line x1="137.43" y1="687.98" x2="1234.16" y2="687.98" style="fill:none;stroke:#c5d3ff;stroke-miterlimit:10;stroke-width:2px"/><polygon points="149.25 694.34 149.94 692.46 137.63 687.98 149.94 683.5 149.25 681.62 131.78 687.98 149.25 694.34" style="fill:#c5d3ff"/><polygon points="1222.34 694.34 1221.65 692.46 1233.96 687.98 1221.65 683.5 1222.34 681.62 1239.81 687.98 1222.34 694.34" style="fill:#c5d3ff"/><line x1="246.47" y1="640.46" x2="1133.78" y2="640.46" style="fill:none;stroke:#c5d3ff;stroke-miterlimit:10;stroke-width:2px"/><polygon points="258.29 646.82 258.97 644.94 246.66 640.46 258.97 635.98 258.29 634.1 240.82 640.46 258.29 646.82" style="fill:#c5d3ff"/><polygon points="1121.95 646.82 1121.27 644.94 1133.58 640.46 1121.27 635.98 1121.95 634.1 1139.43 640.46 1121.95 646.82" style="fill:#c5d3ff"/><text transform="translate(562.59 655.09)" style="font-size:12px;font-family:MyriadPro-Regular, Myriad Pro"><tspan style="letter-spacing:0.009969075520833334em">I</tspan><tspan x="2.99" y="0">nner max width: 900</tspan><tspan x="105.21" y="0" style="letter-spacing:-0.013956705729166666em">p</tspan><tspan x="111.87" y="0" style="letter-spacing:-0.000040690104166666664em">x -1200 </tspan><tspan x="150.82" y="0" style="letter-spacing:-0.013956705729166666em">p</tspan><tspan x="157.48" y="0">x</tspan></text><text transform="translate(563.5 703.09)" style="font-size:12px;font-family:MyriadPro-Regular, Myriad Pro"><tspan style="letter-spacing:0.0029703776041666665em">O</tspan><tspan x="8.3" y="0" style="letter-spacing:0.000040690104166666664em">u</tspan><tspan x="14.92" y="0" style="letter-spacing:-0.0059814453125em">t</tspan><tspan x="18.82" y="0">er max width: 1300</tspan><tspan x="113.88" y="0" style="letter-spacing:-0.013997395833333334em">p</tspan><tspan x="120.54" y="0">x - none</tspan></text></svg>